<svg xmlns="http://www.w3.org/2000/svg" width="64" height="64" viewBox="0 0 64 64"><g fill="#241f31"><path fill-opacity=".35" d="m 12 4 c -4.210938 0 -8 3.378906 -8 7.75 v 40.5 c 0 4.371094 3.789062 7.75 8 7.75 h 40 c 4.210938 0 8 -3.378906 8 -7.75 v -40.5 c 0 -4.371094 -3.789062 -7.75 -8 -7.75 z m -2 18 h 12 v 8 h -12 z m 16.125 0 h 11.875 v 8 h -11.875 z m 15.875 0 h 12 v 8 h -12 z m -32 12 h 12 v 8 h -12 z m 16.125 0 h 11.875 v 8 h -11.875 z m 15.875 0 h 12 v 8 h -12 z m -32 12 h 12 v 8 h -12 z m 16.125 0 h 11.875 v 8 h -11.875 z m 15.875 0 h 12 v 8 h -12 z m 0 0"/><path fill-opacity=".1" d="m 42 34 h 12 v 8 h -12 z m 0 0"/></g></svg>